<?xml version="1.0" ?><svg viewBox="0 0 64 64" xmlns="http://www.w3.org/2000/svg"><title/><g id="outline"><path d="M6,5V59a3,3,0,0,0,3,3H37a3,3,0,0,0,3-3V38H52c3.477,0,6-2.313,6-5.5V20c0-3.813-1.731-6-4.75-6H40V5a3,3,0,0,0-3-3H9A3,3,0,0,0,6,5ZM38,59a1,1,0,0,1-1,1H9a1,1,0,0,1-1-1V54H38Zm0-7H8V10H38v4H32a6.006,6.006,0,0,0-6,6V37a1,1,0,0,0,1,1h2.177L26.1,44.575a1,1,0,0,0,1.493,1.234L38,38.237ZM53.25,16c.68,0,2.75,0,2.75,4V32.5c0,2.4-2.073,3.5-4,3.5H38a1,1,0,0,0-.588.191l-7.857,5.714,2.1-4.48A1,1,0,0,0,30.75,36H28V20a4,4,0,0,1,4-4ZM38,5V8H8V5A1,1,0,0,1,9,4H37A1,1,0,0,1,38,5Z"/><path d="M11,58h2a1,1,0,0,0,0-2H11a1,1,0,0,0,0,2Z"/><path d="M22.29,57.71A1,1,0,0,0,24,57a1,1,0,1,0-2,0,.838.838,0,0,0,.08.38A1.169,1.169,0,0,0,22.29,57.71Z"/><path d="M33,58h2a1,1,0,0,0,0-2H33a1,1,0,0,0,0,2Z"/><path d="M47.293,7.713,48.585,9l-1.291,1.288a1,1,0,1,0,1.412,1.416l2-2a1,1,0,0,0,0-1.415L49.414,7.005,50.708,5.71a1,1,0,0,0,0-1.414l-2-2a1,1,0,0,0-1.416,1.414l1.3,1.3-1.3,1.3A1,1,0,0,0,47.293,7.713Z"/><path d="M42.293,7.713,43.585,9l-1.291,1.288a1,1,0,1,0,1.412,1.416l2-2a1,1,0,0,0,0-1.415L44.414,7.005,45.708,5.71a1,1,0,0,0,0-1.414l-2-2a1,1,0,1,0-1.416,1.414l1.3,1.3-1.3,1.3A1,1,0,0,0,42.293,7.713Z"/><path d="M52.729,45.443l-2-2.128a1,1,0,0,0-1.458,1.37l1.357,1.443-1.357,1.443a1,1,0,0,0,0,1.37l1.355,1.439-1.354,1.433a1.093,1.093,0,0,0-.094.152,1.053,1.053,0,0,0-.1.159.933.933,0,0,0-.044.2,1.1,1.1,0,0,0-.03.179,1.027,1.027,0,0,0,.032.2.966.966,0,0,0,.04.177.977.977,0,0,0,.111.178,1.051,1.051,0,0,0,.083.136l1.357,1.443-1.357,1.443a1,1,0,0,0,0,1.37l1.355,1.439-1.354,1.433a1,1,0,0,0,1.456,1.374l2-2.12a1,1,0,0,0,0-1.372l-1.356-1.439,1.356-1.443a1,1,0,0,0,0-1.37L51.374,52.5l1.354-1.435a1,1,0,0,0,0-1.372l-1.356-1.439,1.356-1.443A1,1,0,0,0,52.729,45.443Z"/><path d="M47.729,45.443l-2-2.128a1,1,0,0,0-1.458,1.37l1.357,1.443-1.357,1.443a1,1,0,0,0,0,1.37l1.355,1.439-1.354,1.433a1.093,1.093,0,0,0-.094.152,1.053,1.053,0,0,0-.1.159.933.933,0,0,0-.044.2,1.1,1.1,0,0,0-.03.179,1.027,1.027,0,0,0,.032.2.966.966,0,0,0,.04.177.977.977,0,0,0,.111.178,1.051,1.051,0,0,0,.083.136l1.357,1.443-1.357,1.443a1,1,0,0,0,0,1.37l1.355,1.439-1.354,1.433a1,1,0,0,0,1.456,1.374l2-2.12a1,1,0,0,0,0-1.372l-1.356-1.439,1.356-1.443a1,1,0,0,0,0-1.37L46.374,52.5l1.354-1.435a1,1,0,0,0,0-1.372l-1.356-1.439,1.356-1.443A1,1,0,0,0,47.729,45.443Z"/><path d="M32,32a1,1,0,0,0,1,1H51a1,1,0,0,0,1-1V20a.619.619,0,0,0-.013-.062.933.933,0,0,0-.03-.228c-.006-.02-.019-.035-.026-.054a.979.979,0,0,0-.058-.117.947.947,0,0,0-.127-.189,1.118,1.118,0,0,0-.09-.092.991.991,0,0,0-.2-.132.855.855,0,0,0-.1-.054A.992.992,0,0,0,51,19H33a.992.992,0,0,0-.356.072.855.855,0,0,0-.1.054.991.991,0,0,0-.2.132,1.118,1.118,0,0,0-.09.092,1.364,1.364,0,0,0-.185.306c-.007.019-.02.034-.026.054a.933.933,0,0,0-.03.228c0,.022-.013.04-.013.062ZM47.7,21,42,24.8,36.3,21ZM34,21.868l7.445,4.964a1,1,0,0,0,1.11,0L50,21.868V31H34Z"/><path d="M15,12H11a1,1,0,0,0-1,1v7a1,1,0,0,0,2,0V14h3a1,1,0,0,0,0-2Z"/><path d="M21,12H19a1,1,0,0,0,0,2h2a1,1,0,0,0,0-2Z"/></g></svg>